<svg xmlns="http://www.w3.org/2000/svg" viewBox="0 0 127.33 174.56"><defs><style>.cls-1{fill:none;}.cls-2{fill:#8eaf54;}</style></defs><g id="Layer_2" data-name="Layer 2"><g id="Layer_1-2" data-name="Layer 1"><path class="cls-1" d="M93.29,39.13,63.67,5.61,34,39.13l-4.42,5L20.11,54.89v54.68H49.82V82.62a2.5,2.5,0,0,1,2.5-2.5H75a2.5,2.5,0,0,1,2.5,2.5v26.95h29.71V54.89L97.71,44.13Z"/><rect class="cls-1" x="54.82" y="85.12" width="17.7" height="24.45"/><path class="cls-2" d="M126.65,68.69,112.22,52.36l-5-5.66L105,44.13l-4.42-5L67.46,1.71a5.07,5.07,0,0,0-7.59,0L26.8,39.13l-4.42,5L20.11,46.7l-5,5.66L.68,68.69a2.71,2.71,0,1,0,4.06,3.59L15.11,60.55v51.52a2.5,2.5,0,0,0,2.5,2.5h92.11a2.5,2.5,0,0,0,2.5-2.5V60.55l10.37,11.73a2.68,2.68,0,0,0,2,.92,2.75,2.75,0,0,0,1.8-.68A2.72,2.72,0,0,0,126.65,68.69ZM72.51,109.57H54.82V85.12H72.51Zm34.71,0H77.51V82.62a2.5,2.5,0,0,0-2.5-2.5H52.32a2.5,2.5,0,0,0-2.5,2.5v26.95H20.11V54.89l9.51-10.76,4.42-5L63.67,5.61,93.29,39.13l4.42,5,9.51,10.76Z"/><path d="M73,155.05a3.35,3.35,0,0,1-2.16,3.06,15,15,0,0,1-6.12,1.19v2.52H77.87v1.94H49.46v-1.94h13V159.3q-8.1-.3-8.1-4.25c0-1.42.81-2.48,2.43-3.19a17.72,17.72,0,0,1,6.89-1.06Q73,150.8,73,155.05Zm3.06-5.44H51.23v-2H76.1Zm-2,24.95H53.28V165.7H74.09Zm-2.31-1.94v-5H55.58v5Zm-1.15-17.57c0-1.54-2.31-2.31-6.95-2.31s-6.91.77-6.91,2.31,2.31,2.34,6.91,2.34S70.63,156.61,70.63,155.05Zm-1.44-9.4H58.46v-2H69.19Z"/></g></g></svg>