<svg xmlns="http://www.w3.org/2000/svg" viewBox="0 0 130 182.74"><defs><style>.cls-1{fill:none;}.cls-2{fill:#8eaf54;}</style></defs><g id="Layer_2" data-name="Layer 2"><g id="Layer_1-2" data-name="Layer 1"><path d="M63.63,178.71H35.23v-2h13v-8.06h2.31v8.06h13.1Zm-1.22-11.63L61.11,169a22.52,22.52,0,0,1-7.41-4.14,14,14,0,0,1-4.32-5.22c-.51,1.6-1.88,3.35-4.11,5.23a20.3,20.3,0,0,1-7.52,4L36.49,167a16.54,16.54,0,0,0,5.31-2.19,16.73,16.73,0,0,0,4.55-4.11,7.94,7.94,0,0,0,1.87-4.82v-2.16H50.6v2.16c0,2.33,1.3,4.61,3.89,6.86A18.92,18.92,0,0,0,62.41,167.08Z"/><path d="M79.69,155.28Q79.29,168.53,67.81,176l-1.59-1.76a22.24,22.24,0,0,0,7.85-7.44,18.82,18.82,0,0,0,3.13-9.55H67.56v-2Zm13.17,27.46h-2.3V166H86v15.09H83.68v-29H86v11.95h4.61V151.28h2.3Z"/><path class="cls-1" d="M107.13,65a11.4,11.4,0,0,1,4.35-9,25.32,25.32,0,0,0-2.58-5.15,5.47,5.47,0,0,1-1.57-1.09,5.57,5.57,0,0,1-1.66-4,5.36,5.36,0,0,1,.35-1.88,25.38,25.38,0,0,0-1.82-5.46,11.69,11.69,0,0,1-1.32.08A11.44,11.44,0,0,1,91.44,27.12a9.76,9.76,0,0,1,.09-1.32A25.65,25.65,0,0,0,86.06,24a5.36,5.36,0,0,1-1.88.35,5.57,5.57,0,0,1-4-1.66,5.46,5.46,0,0,1-1.08-1.56A24.93,24.93,0,0,0,74,18.52a11.4,11.4,0,0,1-17.92,0,24.93,24.93,0,0,0-5.16,2.59,5.46,5.46,0,0,1-1.08,1.56A5.49,5.49,0,0,1,43.94,24a25.47,25.47,0,0,0-5.47,1.82A11.4,11.4,0,0,1,27.12,38.55a11.69,11.69,0,0,1-1.32-.08A25.46,25.46,0,0,0,24,43.92a5.59,5.59,0,0,1-2.9,7A25.64,25.64,0,0,0,18.52,56a11.4,11.4,0,0,1,0,17.92,24.93,24.93,0,0,0,2.59,5.16,5.27,5.27,0,0,1,1.56,1.08,5.57,5.57,0,0,1,1.66,4A5.36,5.36,0,0,1,24,86.06a25.47,25.47,0,0,0,1.82,5.47A11.4,11.4,0,0,1,38.47,104.2,25.47,25.47,0,0,0,43.94,106a5.41,5.41,0,0,1,1.88-.35,5.57,5.57,0,0,1,4,1.66,5.27,5.27,0,0,1,1.08,1.56A24.93,24.93,0,0,0,56,111.48a11.4,11.4,0,0,1,17.92,0,24.93,24.93,0,0,0,5.16-2.59,5.46,5.46,0,0,1,1.08-1.56,5.57,5.57,0,0,1,4-1.66,5.36,5.36,0,0,1,1.88.35,25.65,25.65,0,0,0,5.47-1.82,9.76,9.76,0,0,1-.09-1.32,11.44,11.44,0,0,1,11.44-11.44,11.69,11.69,0,0,1,1.32.08A25.38,25.38,0,0,0,106,86.06a5.36,5.36,0,0,1-.35-1.88,5.57,5.57,0,0,1,1.66-4,5.47,5.47,0,0,1,1.57-1.09A25.32,25.32,0,0,0,111.48,74,11.4,11.4,0,0,1,107.13,65Z"/><path class="cls-2" d="M120.9,53.81a34.92,34.92,0,0,0-4-8.26A5.59,5.59,0,0,0,115.46,42a34.41,34.41,0,0,0-3-8.65A11.43,11.43,0,0,0,96.61,17.56a34.41,34.41,0,0,0-8.65-3,5.59,5.59,0,0,0-3.51-1.46,34.92,34.92,0,0,0-8.26-4,11.43,11.43,0,0,0-22.38,0,34.92,34.92,0,0,0-8.26,4A5.59,5.59,0,0,0,42,14.54a34.41,34.41,0,0,0-8.65,3A11.43,11.43,0,0,0,17.56,33.39a35.07,35.07,0,0,0-3,8.63,5.64,5.64,0,0,0-1.47,3.56,34.69,34.69,0,0,0-4,8.23,11.43,11.43,0,0,0,0,22.38,34.58,34.58,0,0,0,4,8.26A5.58,5.58,0,0,0,14.54,88a34.41,34.41,0,0,0,3,8.65,11.43,11.43,0,0,0,15.83,15.83,34.41,34.41,0,0,0,8.65,3,5.52,5.52,0,0,0,3.51,1.45,34.58,34.58,0,0,0,8.26,4,11.43,11.43,0,0,0,22.38,0,34.58,34.58,0,0,0,8.26-4A5.58,5.58,0,0,0,88,115.46a34.41,34.41,0,0,0,8.65-3,11.43,11.43,0,0,0,15.83-15.83,34.41,34.41,0,0,0,3-8.65,5.58,5.58,0,0,0,1.45-3.51,34.58,34.58,0,0,0,4-8.26,11.43,11.43,0,0,0,0-22.38Zm1.36,16.8a7.24,7.24,0,0,1-1.53.75,6.74,6.74,0,0,1-1.57.33,5.68,5.68,0,0,1-.59,0A6.61,6.61,0,0,1,114.06,70a6.56,6.56,0,0,1-1.23-1.49,6.67,6.67,0,0,1,0-7A6.56,6.56,0,0,1,114.06,60a6.61,6.61,0,0,1,4.51-1.75,5.68,5.68,0,0,1,.59,0,6.74,6.74,0,0,1,1.57.33,7.24,7.24,0,0,1,1.53.75,6.71,6.71,0,0,1,0,11.22Zm-14.63,37a6.75,6.75,0,0,1-7.72,1.27,6.6,6.6,0,0,1-1.32-.85,6.14,6.14,0,0,1-.47-.42,6.76,6.76,0,0,1-1.71-2.93,7.35,7.35,0,0,1-.24-1.49c0-.11,0-.22,0-.33a6.92,6.92,0,0,1,.19-1.59,6.7,6.7,0,0,1,4.94-4.94,6.92,6.92,0,0,1,1.59-.19h.33a7.35,7.35,0,0,1,1.49.24,6.76,6.76,0,0,1,2.93,1.71,6.14,6.14,0,0,1,.42.47,6.6,6.6,0,0,1,.85,1.32,6.52,6.52,0,0,1,.55,1.61A6.7,6.7,0,0,1,107.63,107.63Zm-17.89,4.48a5.29,5.29,0,0,0,.08-.8,5.61,5.61,0,0,0-.93-3.09A26,26,0,0,0,92.21,107a11.3,11.3,0,0,0,2.09,3.44A32.75,32.75,0,0,1,89.74,112.11ZM76.4,117.82a11.24,11.24,0,0,0-1-3.89,27.6,27.6,0,0,0,3.23-1.47,5.57,5.57,0,0,0,1.53,2.83,4.94,4.94,0,0,0,.62.51A32.52,32.52,0,0,1,76.4,117.82Zm-5.79,4.44a6.71,6.71,0,0,1-11.22,0,7.24,7.24,0,0,1-.75-1.53,6.74,6.74,0,0,1-.33-1.57,5.68,5.68,0,0,1,0-.59,6.72,6.72,0,1,1,13.44,0,5.68,5.68,0,0,1,0,.59,6.74,6.74,0,0,1-.33,1.57A7.24,7.24,0,0,1,70.61,122.26ZM49.18,115.8a4.94,4.94,0,0,0,.62-.51,5.57,5.57,0,0,0,1.53-2.83,27.6,27.6,0,0,0,3.23,1.47,11.24,11.24,0,0,0-1,3.89A32.52,32.52,0,0,1,49.18,115.8Zm-20.7-6.35a6.7,6.7,0,0,1-7.93-7.93,6.52,6.52,0,0,1,.55-1.61A6.6,6.6,0,0,1,22,98.59a6.14,6.14,0,0,1,.42-.47,6.7,6.7,0,0,1,2.93-1.71,6.89,6.89,0,0,1,1.5-.23l.32,0a6.54,6.54,0,0,1,1.59.2,6.59,6.59,0,0,1,4.93,4.93,6.14,6.14,0,0,1,.18,1.91,6.89,6.89,0,0,1-.23,1.5,6.7,6.7,0,0,1-1.71,2.93,6.14,6.14,0,0,1-.47.42,6.6,6.6,0,0,1-1.32.85A6.52,6.52,0,0,1,28.48,109.45ZM4.71,65a6.72,6.72,0,0,1,3-5.61,7.24,7.24,0,0,1,1.53-.75,6.74,6.74,0,0,1,1.57-.33,5.68,5.68,0,0,1,.59,0A6.61,6.61,0,0,1,15.94,60a6.56,6.56,0,0,1,1.23,1.49,6.67,6.67,0,0,1,0,7A6.56,6.56,0,0,1,15.94,70a6.69,6.69,0,0,1-1.22.89,6.77,6.77,0,0,1-3.29.86,5.68,5.68,0,0,1-.59,0,6.74,6.74,0,0,1-1.57-.33,7.24,7.24,0,0,1-1.53-.75A6.72,6.72,0,0,1,4.71,65ZM22.37,22.37a6.69,6.69,0,0,1,4.75-2,6.9,6.9,0,0,1,1.36.14,6.52,6.52,0,0,1,1.61.55,6.6,6.6,0,0,1,1.32.85,6.14,6.14,0,0,1,.47.42,6.7,6.7,0,0,1,1.71,2.93,6.89,6.89,0,0,1,.23,1.5,6.14,6.14,0,0,1-.18,1.91,6.59,6.59,0,0,1-4.93,4.93,6.14,6.14,0,0,1-1.91.18,6.89,6.89,0,0,1-1.5-.23,6.7,6.7,0,0,1-2.93-1.71,6.14,6.14,0,0,1-.42-.47,6.6,6.6,0,0,1-.85-1.32,6.52,6.52,0,0,1-.55-1.61A6.7,6.7,0,0,1,22.37,22.37Zm17.89-4.48a5.29,5.29,0,0,0-.08.8,5.61,5.61,0,0,0,.93,3.09A25.4,25.4,0,0,0,37.79,23a11.34,11.34,0,0,0-2.09-3.44A32.75,32.75,0,0,1,40.26,17.89ZM53.6,12.18a11.24,11.24,0,0,0,1,3.89,29.35,29.35,0,0,0-3.23,1.47,5.57,5.57,0,0,0-1.53-2.83,4.94,4.94,0,0,0-.62-.51A32.52,32.52,0,0,1,53.6,12.18Zm5.79-4.44a6.71,6.71,0,0,1,11.22,0,7.24,7.24,0,0,1,.75,1.53,6.74,6.74,0,0,1,.33,1.57,5.68,5.68,0,0,1,0,.59A6.61,6.61,0,0,1,70,15.94a6.56,6.56,0,0,1-1.49,1.23,6.67,6.67,0,0,1-7,0A6.56,6.56,0,0,1,60,15.94a6.69,6.69,0,0,1-.89-1.22,6.77,6.77,0,0,1-.86-3.29,5.68,5.68,0,0,1,0-.59,6.74,6.74,0,0,1,.33-1.57A7.24,7.24,0,0,1,59.39,7.74ZM80.82,14.2a4.94,4.94,0,0,0-.62.51,5.57,5.57,0,0,0-1.53,2.83,27.6,27.6,0,0,0-3.23-1.47,11.24,11.24,0,0,0,1-3.89A32.52,32.52,0,0,1,80.82,14.2Zm20.7,6.35a6.9,6.9,0,0,1,1.36-.14,6.7,6.7,0,0,1,6.57,8.07,6.52,6.52,0,0,1-.55,1.61,6.6,6.6,0,0,1-.85,1.32,6.14,6.14,0,0,1-.42.47,6.76,6.76,0,0,1-2.93,1.71,7.35,7.35,0,0,1-1.49.24h-.33a6.92,6.92,0,0,1-1.59-.19,6.7,6.7,0,0,1-4.94-4.94,6.92,6.92,0,0,1-.19-1.59c0-.11,0-.22,0-.33a7.35,7.35,0,0,1,.24-1.49,6.76,6.76,0,0,1,1.71-2.93,6.14,6.14,0,0,1,.47-.42,6.6,6.6,0,0,1,1.32-.85A6.52,6.52,0,0,1,101.52,20.55Zm11.77,65.62h0a2.51,2.51,0,0,1-.44.35,2.77,2.77,0,0,1-3.9-.83,2.8,2.8,0,0,1,1.75-4.24,3.08,3.08,0,0,1,.61-.07,2.76,2.76,0,0,1,2,.82,2.81,2.81,0,0,1,0,4Zm-6-6a5.57,5.57,0,0,0-1.66,4,5.36,5.36,0,0,0,.35,1.88,25.38,25.38,0,0,1-1.82,5.46,11.69,11.69,0,0,0-1.32-.08,11.44,11.44,0,0,0-11.44,11.44,9.76,9.76,0,0,0,.09,1.32A25.65,25.65,0,0,1,86.06,106a5.36,5.36,0,0,0-1.88-.35,5.57,5.57,0,0,0-4,1.66,5.46,5.46,0,0,0-1.08,1.56A24.93,24.93,0,0,1,74,111.48a11.4,11.4,0,0,0-17.92,0,24.93,24.93,0,0,1-5.16-2.59,5.27,5.27,0,0,0-1.08-1.56,5.57,5.57,0,0,0-4-1.66,5.41,5.41,0,0,0-1.88.35,25.47,25.47,0,0,1-5.47-1.82A11.4,11.4,0,0,0,25.8,91.53,25.47,25.47,0,0,1,24,86.06a5.36,5.36,0,0,0,.35-1.88,5.57,5.57,0,0,0-1.66-4,5.27,5.27,0,0,0-1.56-1.08A24.93,24.93,0,0,1,18.52,74a11.4,11.4,0,0,0,0-17.92,25.64,25.64,0,0,1,2.57-5.13,5.59,5.59,0,0,0,2.9-7,25.46,25.46,0,0,1,1.81-5.45,11.69,11.69,0,0,0,1.32.08A11.4,11.4,0,0,0,38.47,25.8,25.47,25.47,0,0,1,43.94,24a5.49,5.49,0,0,0,5.86-1.31,5.46,5.46,0,0,0,1.08-1.56A24.93,24.93,0,0,1,56,18.52a11.4,11.4,0,0,0,17.92,0,24.93,24.93,0,0,1,5.16,2.59,5.46,5.46,0,0,0,1.08,1.56,5.57,5.57,0,0,0,4,1.66A5.36,5.36,0,0,0,86.06,24a25.65,25.65,0,0,1,5.47,1.82,9.76,9.76,0,0,0-.09,1.32,11.44,11.44,0,0,0,11.44,11.44,11.69,11.69,0,0,0,1.32-.08A25.38,25.38,0,0,1,106,43.94a5.36,5.36,0,0,0-.35,1.88,5.57,5.57,0,0,0,1.66,4,5.47,5.47,0,0,0,1.57,1.09A25.32,25.32,0,0,1,111.48,56a11.4,11.4,0,0,0,0,17.92,25.32,25.32,0,0,1-2.58,5.15A5.47,5.47,0,0,0,107.33,80.2ZM86.52,112.85a2.51,2.51,0,0,1-.35.44,2.82,2.82,0,1,1-.48-4.34,2.86,2.86,0,0,1,.48.38,2.78,2.78,0,0,1,.82,2A2.69,2.69,0,0,1,86.52,112.85ZM43,111.31a2.78,2.78,0,0,1,.82-2,2.86,2.86,0,0,1,.48-.38,2.8,2.8,0,1,1-.48,4.34,2.51,2.51,0,0,1-.35-.44A2.77,2.77,0,0,1,43,111.31ZM16,83.6a2.81,2.81,0,0,1,.76-1.4,2.76,2.76,0,0,1,2-.82,3.08,3.08,0,0,1,.61.07,2.78,2.78,0,0,1,1.75,4.24,2.77,2.77,0,0,1-3.9.83,2.51,2.51,0,0,1-.44-.35A2.8,2.8,0,0,1,16,83.6Zm-.06-37.78a2.79,2.79,0,0,1,5.16-1.5,2.76,2.76,0,0,1,.45,1.5,2.8,2.8,0,0,1-2.2,2.73,2.48,2.48,0,0,1-.61.07A2.81,2.81,0,0,1,16,46.41,2.88,2.88,0,0,1,15.89,45.82ZM43.48,17.15a2.51,2.51,0,0,1,.35-.44,2.8,2.8,0,0,1,2-.82,2.86,2.86,0,0,1,.58.06,2.77,2.77,0,0,1,1.4.76,2.81,2.81,0,0,1,0,4,2.87,2.87,0,0,1-3.48.38,2.93,2.93,0,0,1-.49-.38,2.78,2.78,0,0,1-.35-3.52ZM87,18.69a2.78,2.78,0,0,1-.82,2,2.48,2.48,0,0,1-.49.38,2.87,2.87,0,0,1-3.48-.38,2.81,2.81,0,0,1,0-4A2.81,2.81,0,0,1,83.6,16a2.86,2.86,0,0,1,.58-.06,2.8,2.8,0,0,1,2,.82,2.51,2.51,0,0,1,.35.44A2.69,2.69,0,0,1,87,18.69ZM114.05,46.4a2.8,2.8,0,0,1-3.35,2.15A2.78,2.78,0,0,1,109,44.31a2.86,2.86,0,0,1,.38-.48,2.78,2.78,0,0,1,3.52-.35,2.51,2.51,0,0,1,.44.35h0A2.8,2.8,0,0,1,114.05,46.4ZM17.54,51.33a28.37,28.37,0,0,0-1.47,3.23,11.24,11.24,0,0,0-3.89-1,32.34,32.34,0,0,1,2-4.41A5.61,5.61,0,0,0,17.54,51.33Zm96.39,3.23a28.37,28.37,0,0,0-1.47-3.23,5.56,5.56,0,0,0,2.83-1.53,4.94,4.94,0,0,0,.51-.62,32.52,32.52,0,0,1,2,4.42A11.24,11.24,0,0,0,113.93,54.56Zm-2.62-14.38a5.61,5.61,0,0,0-3.09.93A26,26,0,0,0,107,37.79a11.3,11.3,0,0,0,3.44-2.09,32.75,32.75,0,0,1,1.69,4.56A5.29,5.29,0,0,0,111.31,40.18Zm-17-20.6A11.3,11.3,0,0,0,92.21,23a26,26,0,0,0-3.32-1.24,5.61,5.61,0,0,0,.93-3.09,5.29,5.29,0,0,0-.08-.8A32.75,32.75,0,0,1,94.3,19.58ZM19.58,35.7A11.55,11.55,0,0,0,23,37.79a26,26,0,0,0-1.24,3.32,5.65,5.65,0,0,0-3.09-.93,5.29,5.29,0,0,0-.8.07A32.16,32.16,0,0,1,19.58,35.7ZM16.07,75.44a29.35,29.35,0,0,0,1.47,3.23,5.57,5.57,0,0,0-2.83,1.53,4.94,4.94,0,0,0-.51.62,32.52,32.52,0,0,1-2-4.42A11.24,11.24,0,0,0,16.07,75.44Zm2.62,14.38a5.61,5.61,0,0,0,3.09-.93A25.4,25.4,0,0,0,23,92.21a11.55,11.55,0,0,0-3.44,2.09,32.75,32.75,0,0,1-1.69-4.56A5.29,5.29,0,0,0,18.69,89.82Zm17,20.6A11.34,11.34,0,0,0,37.79,107a25.4,25.4,0,0,0,3.32,1.24,5.61,5.61,0,0,0-.93,3.09,5.29,5.29,0,0,0,.08.8A32.75,32.75,0,0,1,35.7,110.42ZM110.42,94.3A11.3,11.3,0,0,0,107,92.21a26,26,0,0,0,1.24-3.32,5.61,5.61,0,0,0,3.09.93,5.29,5.29,0,0,0,.8-.08A32.75,32.75,0,0,1,110.42,94.3Zm4.87-14.1a5.56,5.56,0,0,0-2.83-1.53,28.37,28.37,0,0,0,1.47-3.23,11.24,11.24,0,0,0,3.89,1,32.52,32.52,0,0,1-2,4.42A4.94,4.94,0,0,0,115.29,80.2Z"/></g></g></svg>