<svg xmlns="http://www.w3.org/2000/svg" viewBox="0 0 498.78 498.78"><defs><style>.cls-1{fill:#44a4e0;}</style></defs><g id="Layer_2" data-name="Layer 2"><g id="Layer_1-2" data-name="Layer 1"><path class="cls-1" d="M463.87,206.44a133.81,133.81,0,0,0-15.29-31.67A21.44,21.44,0,0,0,443,161.3a133.52,133.52,0,0,0-11.58-33.2,43.87,43.87,0,0,0-60.73-60.74,133.6,133.6,0,0,0-33.21-11.58A21.44,21.44,0,0,0,324,50.2a133.81,133.81,0,0,0-31.67-15.29,43.87,43.87,0,0,0-85.89,0A133.88,133.88,0,0,0,174.77,50.2a21.46,21.46,0,0,0-13.47,5.58,133.67,133.67,0,0,0-33.2,11.58A43.87,43.87,0,0,0,67.36,128.1,133.78,133.78,0,0,0,55.8,161.21a21.56,21.56,0,0,0-5.66,13.65,134.15,134.15,0,0,0-15.23,31.58,43.88,43.88,0,0,0,0,85.9A133.81,133.81,0,0,0,50.2,324a21.49,21.49,0,0,0,5.58,13.47,133.6,133.6,0,0,0,11.58,33.21,43.88,43.88,0,0,0,60.74,60.73A133.67,133.67,0,0,0,161.3,443a21.46,21.46,0,0,0,13.47,5.58,133.69,133.69,0,0,0,31.68,15.29,43.87,43.87,0,0,0,85.89,0A133.88,133.88,0,0,0,324,448.58,21.43,21.43,0,0,0,337.48,443a133.6,133.6,0,0,0,33.21-11.58,43.87,43.87,0,0,0,60.73-60.73A133.6,133.6,0,0,0,443,337.48,21.41,21.41,0,0,0,448.58,324a133.88,133.88,0,0,0,15.29-31.68,43.88,43.88,0,0,0,0-85.9ZM444.3,188.69a123.21,123.21,0,0,1,7.74,17,43.78,43.78,0,0,0-14.92,3.66A107.38,107.38,0,0,0,431.48,197a21.52,21.52,0,0,0,10.88-5.87A20.9,20.9,0,0,0,444.3,188.69ZM433,166.81a10.45,10.45,0,0,1,1.69,1.37h0a10.77,10.77,0,1,1-18.38,7.62A10.63,10.63,0,0,1,418,170a10.21,10.21,0,0,1,1.45-1.84A10.75,10.75,0,0,1,433,166.81Zm-2.84-12.33a21,21,0,0,0-3.08-.3,21.43,21.43,0,0,0-11.84,3.54A107.86,107.86,0,0,0,410.48,145a43.57,43.57,0,0,0,13.18-8A123,123,0,0,1,430.15,154.48ZM369,102.81a26.05,26.05,0,0,1,.92-5.74,25.67,25.67,0,0,1,6.57-11.24c.58-.57,1.18-1.1,1.79-1.61A25.34,25.34,0,0,1,383.33,81a25.78,25.78,0,0,1,31.23,39.55c-.51.61-1,1.21-1.61,1.79a25.63,25.63,0,0,1-11.23,6.57,26.24,26.24,0,0,1-5.74.92c-.42,0-.84.06-1.26.06a25.72,25.72,0,0,1-25-19.69,26.31,26.31,0,0,1-.75-6.09C368.93,103.64,369,103.23,369,102.81ZM344.3,68.63a123.17,123.17,0,0,1,17.51,6.5,43.56,43.56,0,0,0-8,13.18,107.76,107.76,0,0,0-12.72-4.76,21.49,21.49,0,0,0,3.54-11.84A21.15,21.15,0,0,0,344.3,68.63ZM315.38,64.1A10.76,10.76,0,0,1,330.6,79.32a10,10,0,0,1-1.88,1.45,11.05,11.05,0,0,1-13.34-1.45,10.61,10.61,0,0,1-2.87-5.27A10.73,10.73,0,0,1,315.38,64.1ZM293.12,46.75a123.15,123.15,0,0,1,17,7.73,20,20,0,0,0-2.39,2,21.4,21.4,0,0,0-5.84,10.88,109.61,109.61,0,0,0-12.4-5.65A43.72,43.72,0,0,0,293.12,46.75Zm-69.4-5.17a25.74,25.74,0,0,1,1.28-6,25.37,25.37,0,0,1,2.87-5.87,25.79,25.79,0,0,1,47.19,11.86c.07.75.12,1.52.12,2.29a25.58,25.58,0,0,1-3.31,12.59,26.42,26.42,0,0,1-3.41,4.71,26.11,26.11,0,0,1-5.7,4.71,25.59,25.59,0,0,1-26.74,0,26.12,26.12,0,0,1-9.11-9.42,25.68,25.68,0,0,1-3.3-12.59C223.61,43.1,223.66,42.33,223.72,41.58Zm-18.06,5.17a43.72,43.72,0,0,0,3.66,14.91,110.27,110.27,0,0,0-12.39,5.65,21.49,21.49,0,0,0-5.85-10.88,20.7,20.7,0,0,0-2.38-2A123,123,0,0,1,205.66,46.75Zm-38.85,19a10.11,10.11,0,0,1,1.37-1.7A10.74,10.74,0,0,1,175.8,61a11.15,11.15,0,0,1,7.61,3.15,10.83,10.83,0,0,1,0,15.22,11.05,11.05,0,0,1-13.35,1.45,10,10,0,0,1-1.88-1.45,10.74,10.74,0,0,1-1.37-13.52Zm-12.33,2.83a21.14,21.14,0,0,0-.3,3.08,21.4,21.4,0,0,0,3.54,11.84A109.86,109.86,0,0,0,145,88.31a43.7,43.7,0,0,0-8-13.18A123.17,123.17,0,0,1,154.48,68.63ZM85.83,85.84a25.72,25.72,0,0,1,18.24-7.54,25.92,25.92,0,0,1,16.44,5.92c.62.51,1.22,1,1.79,1.61a25.77,25.77,0,0,1-19.49,44,26.13,26.13,0,0,1-5.74-.92,25.67,25.67,0,0,1-11.24-6.56c-.57-.58-1.1-1.17-1.61-1.79A25.28,25.28,0,0,1,81,115.46a25.82,25.82,0,0,1,4.87-29.62ZM75.13,137a43.62,43.62,0,0,0,13.19,8,108.26,108.26,0,0,0-4.77,12.75,21.48,21.48,0,0,0-11.84-3.55,22,22,0,0,0-3.06.24A122.34,122.34,0,0,1,75.13,137Zm-9.34,29.85A10.75,10.75,0,1,1,74,186.29a10.53,10.53,0,0,1-2.33.27,10.77,10.77,0,0,1-10.51-8.51A10.48,10.48,0,0,1,61,175.8,10.77,10.77,0,0,1,65.79,166.82ZM54.45,188.75A21.64,21.64,0,0,0,67.3,197a106.47,106.47,0,0,0-5.64,12.36,43.72,43.72,0,0,0-14.91-3.66A122.26,122.26,0,0,1,54.45,188.75ZM41.58,275.06a25.78,25.78,0,0,1,0-51.34c.75-.06,1.52-.11,2.29-.11a25.68,25.68,0,0,1,12.59,3.3,26.42,26.42,0,0,1,4.71,3.41,26,26,0,0,1,4.7,5.7,25.51,25.51,0,0,1,0,26.74,26.11,26.11,0,0,1-4.71,5.7,26.42,26.42,0,0,1-4.71,3.41,25.58,25.58,0,0,1-12.59,3.31C43.1,275.18,42.33,275.13,41.58,275.06Zm12.9,35a123.15,123.15,0,0,1-7.73-17,43.72,43.72,0,0,0,14.91-3.66,108.67,108.67,0,0,0,5.65,12.39,21.49,21.49,0,0,0-10.88,5.85A20,20,0,0,0,54.48,310.09ZM65.79,332a9.82,9.82,0,0,1-1.69-1.35,10.76,10.76,0,0,1,7.61-18.37,10.85,10.85,0,0,1,2.34.28,10.72,10.72,0,0,1,6.73,16.26,10.7,10.7,0,0,1-15,3.18Zm2.84,12.35a21.15,21.15,0,0,0,3.08.31,21.49,21.49,0,0,0,11.84-3.54,109.71,109.71,0,0,0,4.76,12.73,43.7,43.7,0,0,0-13.18,8A122.72,122.72,0,0,1,68.63,344.3Zm60.23,57.41A25.62,25.62,0,0,1,122.3,413c-.57.57-1.17,1.1-1.79,1.61a25.28,25.28,0,0,1-5.05,3.26A25.76,25.76,0,0,1,81,383.33a25.34,25.34,0,0,1,3.26-5.06c.51-.61,1-1.21,1.61-1.79a25.67,25.67,0,0,1,11.24-6.56,26.13,26.13,0,0,1,5.74-.92c.42,0,.84-.06,1.26-.06a26.2,26.2,0,0,1,6.1.76,25.83,25.83,0,0,1,18.69,32Zm25.62,28.44A123.13,123.13,0,0,1,137,423.66a43.75,43.75,0,0,0,8-13.19,108.06,108.06,0,0,0,12.74,4.76,21.43,21.43,0,0,0-3.54,11.84A21,21,0,0,0,154.48,430.15Zm28.93,4.53a10.82,10.82,0,0,1-15.23,0,10.45,10.45,0,0,1-1.37-1.69,10.74,10.74,0,0,1,1.38-13.53A10.51,10.51,0,0,1,170,418a10.7,10.7,0,0,1,16.26,6.73A10.77,10.77,0,0,1,183.41,434.68ZM205.66,452a124.4,124.4,0,0,1-17-7.74,20.9,20.9,0,0,0,2.39-1.94,21.52,21.52,0,0,0,5.85-10.89,107.73,107.73,0,0,0,12.39,5.65A43.78,43.78,0,0,0,205.66,452Zm69.4,5.17a25.76,25.76,0,0,1-47.19,11.86A25.37,25.37,0,0,1,225,463.2a25.86,25.86,0,0,1-1.28-6c-.06-.76-.11-1.52-.11-2.3a25.68,25.68,0,0,1,3.3-12.59,26.21,26.21,0,0,1,9.11-9.41,25.73,25.73,0,0,1,32.44,4.71,26,26,0,0,1,3.41,4.7,25.58,25.58,0,0,1,3.31,12.59C275.18,455.69,275.13,456.45,275.06,457.21ZM293.12,452a43.78,43.78,0,0,0-3.66-14.92,107.88,107.88,0,0,0,12.4-5.65,21.43,21.43,0,0,0,5.84,10.89,20.9,20.9,0,0,0,2.39,1.94A124.4,124.4,0,0,1,293.12,452ZM332,433a11.08,11.08,0,0,1-1.38,1.69,10.74,10.74,0,0,1-18.09-9.94,10.75,10.75,0,0,1,21.24,2.33A10.71,10.71,0,0,1,332,433Zm12.32-2.84a21,21,0,0,0,.31-3.08,21.51,21.51,0,0,0-3.54-11.84,107.71,107.71,0,0,0,12.72-4.75,43.8,43.8,0,0,0,8,13.18A123.13,123.13,0,0,1,344.3,430.15Zm6.54-35.43a44.81,44.81,0,0,0,.32,5.07,96.93,96.93,0,0,1-21,7,21.2,21.2,0,0,0-26.66,11,96.48,96.48,0,0,1-19.8,9.91,43.75,43.75,0,0,0-68.72,0,97,97,0,0,1-19.8-9.91,21.22,21.22,0,0,0-26.65-11,97.29,97.29,0,0,1-21-7A43.73,43.73,0,0,0,99,351.19a96.64,96.64,0,0,1-7-21,21.3,21.3,0,0,0-5-22.51,21.33,21.33,0,0,0-6-4.15,96.48,96.48,0,0,1-9.91-19.8,43.75,43.75,0,0,0,0-68.72,97.07,97.07,0,0,1,9.85-19.71A21.5,21.5,0,0,0,92,168.5a96.55,96.55,0,0,1,7-20.91,43,43,0,0,0,5.07.33A43.76,43.76,0,0,0,147.59,99a96.64,96.64,0,0,1,21-7,21.72,21.72,0,0,0,7.23,1.31A21.18,21.18,0,0,0,195.23,81,97,97,0,0,1,215,71.07a43.75,43.75,0,0,0,68.72,0A96.48,96.48,0,0,1,303.55,81,21.18,21.18,0,0,0,323,93.33,21.66,21.66,0,0,0,330.21,92a96.37,96.37,0,0,1,21,7,45,45,0,0,0-.32,5.08,43.87,43.87,0,0,0,43.88,43.87,44.81,44.81,0,0,0,5.07-.32,96.93,96.93,0,0,1,7,20.95,21.26,21.26,0,0,0,5,22.51,21.8,21.8,0,0,0,6,4.18A96.67,96.67,0,0,1,427.71,215a43.75,43.75,0,0,0,0,68.72,97,97,0,0,1-9.89,19.78,21.25,21.25,0,0,0-11.05,26.68,96.93,96.93,0,0,1-7,21,44.81,44.81,0,0,0-5.07-.32,43.87,43.87,0,0,0-43.88,43.88ZM413,413a25.76,25.76,0,0,1-29.62,4.87,25.34,25.34,0,0,1-5.06-3.26c-.61-.51-1.21-1-1.79-1.61a25.63,25.63,0,0,1-6.57-11.23A26.24,26.24,0,0,1,369,396c0-.42-.06-.84-.06-1.26a26.17,26.17,0,0,1,.75-6.09,25.66,25.66,0,0,1,18.95-18.95,26.24,26.24,0,0,1,6.09-.75c.42,0,.84,0,1.26.06a26.24,26.24,0,0,1,5.74.92A25.63,25.63,0,0,1,413,376.48c.57.58,1.1,1.18,1.61,1.79a25.34,25.34,0,0,1,3.26,5.06A25.74,25.74,0,0,1,413,413Zm10.71-51.14a43.72,43.72,0,0,0-13.19-8,106,106,0,0,0,4.76-12.72,21.51,21.51,0,0,0,11.84,3.54,21,21,0,0,0,3.08-.31A123.13,123.13,0,0,1,423.66,361.81Zm11-31.21h0A9.82,9.82,0,0,1,433,332a11.06,11.06,0,0,1-13.53-1.35,10.51,10.51,0,0,1-1.45-1.83,10.69,10.69,0,0,1,1.45-13.39,10.52,10.52,0,0,1,5.28-2.87,10.83,10.83,0,0,1,2.33-.28,10.77,10.77,0,0,1,7.61,18.37Zm9.62-20.51a20.9,20.9,0,0,0-1.94-2.39,21.56,21.56,0,0,0-10.88-5.87,107.38,107.38,0,0,0,5.64-12.37A43.78,43.78,0,0,0,452,293.12,123.21,123.21,0,0,1,444.3,310.09Zm24.77-39.17a26.12,26.12,0,0,1-11.86,4.14c-.76.07-1.52.12-2.3.12a25.58,25.58,0,0,1-12.59-3.31,26.21,26.21,0,0,1-9.41-9.11,25.54,25.54,0,0,1,0-26.74,26.21,26.21,0,0,1,9.41-9.11,25.68,25.68,0,0,1,12.59-3.3c.78,0,1.54,0,2.3.11a25.86,25.86,0,0,1,6,1.28,25.37,25.37,0,0,1,5.87,2.87,25.73,25.73,0,0,1,0,43.05Z"/><path class="cls-1" d="M181.29,286.89l.58,0,.77,0,.91.1c-.07,0,.55,0,1.18-.05l1.5-.05h2l-1.35-8.71c-.06-.23-.62-1.75-.8-2.1l-.16-.5h-.51c-.6,1.4-1.39,3.42-2.21,5.55l-.68,1.76,0,1.65-.41.55Z"/><path class="cls-1" d="M141.89,223.49a6.52,6.52,0,0,0-.1,1c0,4.45.56,7.87,3.42,11.24l1.8,1.24a5.31,5.31,0,0,0,2.11.83l.6.11,1.72-.88.13-.92a13.52,13.52,0,0,1,.78-2.75,24.37,24.37,0,0,0,.78-2.49l.28-1.34c.25-1.17.51-2.38.66-3.68l.29-.51.08-.95c.06-.55.13-1.27.13-1.57v-.46c.12-.46.2-1,.29-1.51s.21-1.32.22-1.41a9.92,9.92,0,0,1,2.81-2.23,22.3,22.3,0,0,0,2.23-1.52,18.86,18.86,0,0,1,3.94-2.17l3.6-2.11,3-1.41,2.94-2.11.52-.31a9.08,9.08,0,0,0,1.44-1.45l.2-.22a2.67,2.67,0,0,0,1.7-1.26l.39-.24,1.24-2.12.24-.15a9.53,9.53,0,0,0,3.25-3.38l.19-.5c.27-.31.82-.82,1.06-1,1.78-1.53,3.25-6.66,3.25-8.63,0-3.09-2.87-5.4-5.43-6.88a12,12,0,0,0-1.25-.46,4.64,4.64,0,0,1-1.18-.51l-.58-.27a20.7,20.7,0,0,0-4.53-.07l-3.09,0a20.27,20.27,0,0,0-9.7,2.1l-.53.23-.59.25c-.08-.08-.15-.17-.23-.26a4.17,4.17,0,0,0-3.31-1.71,5.31,5.31,0,0,0-4,2.11L151.26,185v.21l-.09.14a2.81,2.81,0,0,0-.59,1.32l-.07.39a4.91,4.91,0,0,0-.59.79l-.53,1.19-.81,1.16-1.17,4.54a7.67,7.67,0,0,0-.17.83l-.8,1.24v.56c0,.13-.06.42-.11.71-.09.52-.16,1.05-.16,1.16s0,.45,0,.47L145,203.85l-.06.47a4.57,4.57,0,0,1-.41,1.64l-.33,1.35A4.85,4.85,0,0,0,144,209a.07.07,0,0,1,0,.05h-.33v1.79c0,.26,0,.76-.1,1.23s-.07.9-.06.9h0c0,.18-.15.68-.27,1.18-.32,1.32-.34,1.48-.33,1.44a6.29,6.29,0,0,1-.46,1.53,8.3,8.3,0,0,0-.63,3.51l-.27,1.25.32.58C142,222.76,142,222.92,141.89,223.49Zm17.53-22.59a7.27,7.27,0,0,0,.28-1l.31-.27.07-.8c0-.18.07-.54.14-.92s.1-.67.14-1l.42-.51v-.63l.52-1.09v-1a3.49,3.49,0,0,0,.32-1.36,8.61,8.61,0,0,1,3-1.88l.45-.21a7.74,7.74,0,0,0,1.44-.64l.74-.17c.63-.07,1.28-.2,1.93-.33a12.44,12.44,0,0,1,2.51-.36h.7c.37,0,1.3.08,1.94.13l.57,0,.39.1,2,.49a4,4,0,0,1,0,.57,1.75,1.75,0,0,1-.18.38l-1.18,2.05c-.44.45-1.38,1.53-3.81,4.43l-.24.36a1.46,1.46,0,0,1-.11.18l-7.82,6.67-1.44,1.17,0,.21-.25.11a12.3,12.3,0,0,0-2,1.17c-.43.32-.84.59-1.28.89l-1.19.8a2,2,0,0,0,0-.24l.21-1c.1-.34.39-1.66.52-2.5l.33-.41v-.49c0-.31.24-1.12.4-1.8S159.38,201.12,159.42,200.9Z"/><path class="cls-1" d="M187,191.09a5.41,5.41,0,0,0,1.78,3.75l.41.47,1,1.31.58.5c.27.15.62.38,1,.62A12.94,12.94,0,0,0,194,199l.61.11a5.28,5.28,0,0,0,3-1.18,6.18,6.18,0,0,0,.58-.42l.36-.05c-.14.26-.29.54-.44.87l-.29,1.05a12,12,0,0,1-1,1.9c-.3.48-.6,1-.85,1.44a16.24,16.24,0,0,0-1.17,2.51,9.89,9.89,0,0,1-1.48,2.78,1.8,1.8,0,0,1-.28.41h0c-.09,0-.49,0-1,.1s-1.14.15-1.39.16l-1.12-.12-.46,1.09a3.85,3.85,0,0,1-.49.51,3.15,3.15,0,0,0-1.29,2.23c0,.78.42,1.3,1.11,2.17a14,14,0,0,1,1.43,2c0,.21-.14.62-.24,1s-.13.51-.17.7a4.25,4.25,0,0,0-.51,1.41c-.07.15-.14.27-.2.38a2.5,2.5,0,0,0-.46,1.35l0,1.28c0,.18-.15.58-.26,1a7.53,7.53,0,0,0-.37,1.76l0,.35-.44,3,0,2a7.8,7.8,0,0,0,1.94,5.92,6.19,6.19,0,0,0,2,1.5l1,.14a23.19,23.19,0,0,0,8.59-2c.7-.35,1.38-.62,2.06-.89a27.12,27.12,0,0,0,2.54-1.14c.63-.33,1.18-.69,1.72-1a11.07,11.07,0,0,1,1.79-1h1l.75-.65a6.73,6.73,0,0,0,1.53-1.09l1.2-.52.37-1.44.06,0a21.73,21.73,0,0,1,3.32-2.12,4.56,4.56,0,0,0,1.17-.52,3.67,3.67,0,0,0,1.22-1l.18-.2.13-.08c.37-.23.79-.47,1.22-.71a18.37,18.37,0,0,0,2.32-1.46l.59-.59a2.28,2.28,0,0,0,1.54-1.09l4.38-3.82A8.63,8.63,0,0,0,231,219a2.24,2.24,0,0,0,.48.49c-.76,4.8-1.16,10-1.15,10.38-.1.71-.18,1.24-.25,1.66a11.11,11.11,0,0,0-.21,1.91,12.24,12.24,0,0,0,.6,3,7.91,7.91,0,0,0,.58,1.11,3.25,3.25,0,0,0,2.89,1.88c1.57,0,2.57-1.8,2.57-2.75v-.09a2.76,2.76,0,0,0,.35-.71l.59-.45.44-.66,1.28-.86-.1-.25a3,3,0,0,0,.37-.58c.11-.27.24-.53.37-.79a8.85,8.85,0,0,0,1-2.73l.11-.55.91-1.22-.2-.41v-.51a4,4,0,0,0,1.3-2.56l.27-.81.14-.56a5.23,5.23,0,0,0,.28-1.54,5,5,0,0,1,.41-1.19,2.31,2.31,0,0,0,.29-.86l.25-1.69c.65-.33,1.69-.71,2.2-.9a7.67,7.67,0,0,0,1-.4l.83,0a5.1,5.1,0,0,0,.72-.11c.28-.05.69-.14.86-.16a15,15,0,0,0,3.42-.51,9.57,9.57,0,0,1,1.48-.28h.41a5.55,5.55,0,0,0,.17,1.12v5.14h0v.1a2.25,2.25,0,0,0,.14.8l-.14.78a14.76,14.76,0,0,0,.15,2,10.88,10.88,0,0,1,.11,1.27,2.89,2.89,0,0,1-.14,1.18l-.3,2.28-.16.7a16.78,16.78,0,0,0-.1,1.69c0,1.39-.08,1.92-.91,2.57a2.21,2.21,0,0,0-.88.54,2.52,2.52,0,0,0-1,2.68,2.6,2.6,0,0,0,2.61,1.78h.46a3.49,3.49,0,0,0,2.78-1.31c.23-.25.23-.25.38-.27l.69-.22.2-.13a4.27,4.27,0,0,0,1.31-1.16l.83-.69a6.31,6.31,0,0,0,1.28-2.57c0-.12,0-.31.08-.48s.05-.29.07-.42l.15-.48a7.26,7.26,0,0,0,.15-1.11c0-.14,0-.32,0-.35l.32-.21.21-.44a3.6,3.6,0,0,0,.33-1l.51-.93v-.5a4.25,4.25,0,0,0,.22-1.16l0-10.23c-.13-.69-.19-1.15-.26-1.64,0-.11,0-.22,0-.33,1.81-.15,4.41-.29,4.85-.29h.24v10.21a9.59,9.59,0,0,0,.62,2.74c0,.18.07.37.11.57a5.46,5.46,0,0,0,1.14,3c1.58,2.38,3.48,4.66,6.64,5.31l.5,0,.65.24a8.53,8.53,0,0,0,3.15.73c2,0,4-.06,5.35-.72l.6-.3.17-.42a6.24,6.24,0,0,0,1.05-.67c.24-.08.53-.21.94-.39l.71-.31.72-.27a9.29,9.29,0,0,1,.87-.51l.1,0,.21-.23c.2-.12.59-.29,1-.46a6.36,6.36,0,0,0,1.12-.58,8.38,8.38,0,0,0,2-1.71l1.89-1.8a124,124,0,0,0,9.35-9.16c.31-.34.53-.58.69-.74a3.78,3.78,0,0,0,1.24-.74l.91-.66a16.28,16.28,0,0,0,2.58-4.25c.32-.68.63-1.35,1-1.93l1.37-2.71h-3.16a5.6,5.6,0,0,0-2.82,1l-.37.25c-.12.09-.34.22-.59.38a10,10,0,0,0-1.57,1.13l-.31.17a10,10,0,0,0-2.63,1.64l-1.73,1a55,55,0,0,0-5.66,3.56,40.13,40.13,0,0,1-6.54,3.9l-.82.45a15,15,0,0,0-2.86,1.73,7.24,7.24,0,0,1-3.3,1.62,10.35,10.35,0,0,1-1.57-1c0-.13,0-.26-.07-.4-.05-.33-.11-.69-.12-.78v-7.75a7.83,7.83,0,0,1,.4-1.05,9.91,9.91,0,0,0,.73-2.3c0-.12.06-.31.1-.49s.11-.55.14-.75l.27-.86a41.5,41.5,0,0,1,1.89-5.1l.17-.68,1-1v-.38l.2-.34a8.46,8.46,0,0,0,.47-.85,48.64,48.64,0,0,1,7.9-7.57l.54-.43,1.52-.52a8.74,8.74,0,0,1,4.05-1.12h1l.31.08c.05.12.1.24.14.36.54,1.34,1.43,3.59,4.27,3.59l1,0c1.48-.2,6-.81,6-4.83,0-.68-.17-3.49-.94-4.77a7.51,7.51,0,0,0-3.36-3,15.06,15.06,0,0,0-8.51-2.39c-5.77,0-18.37,5-21.84,10.76l-.22.36,0,0-.63.55v.19l-.06.06a2.89,2.89,0,0,0-.94,1.31,2.38,2.38,0,0,1-.85,1.24l-.25.31a48.26,48.26,0,0,0-4.61,8.87,24.1,24.1,0,0,0-1.3,4.21l-.5-.3-.53-.25a17.93,17.93,0,0,0-4.56-.62c-.48,0-1,0-1.54-.08-.33-2.84-.68-5.94-.84-8.45l0-.43-.27-.47h0c-.05-.5-.13-1.37-.13-1.71v-.49a24.1,24.1,0,0,1,0-3.8v-.44a5.12,5.12,0,0,0-.53-1.92l-2.29-2.49h0a4.64,4.64,0,0,0,.1-.83,7.17,7.17,0,0,0-3.62-5.85L255,180a27.36,27.36,0,0,0-7-1.14c-1,0-2.31,0-2.9,1.14l-.27,1.07c-.17.24-.46.57-.69.83a3.72,3.72,0,0,0-.55.8,2.54,2.54,0,0,0-.61,1c-.22.64-.4,1.29-.58,1.94a12.21,12.21,0,0,1-1,2.82l-.18.31L241,189a4,4,0,0,0-.68,1.09,6.66,6.66,0,0,0-.48,1.63c0,.17-.07.35-.11.54s-.25.31-.37.46a7.06,7.06,0,0,0-1,1.42l-.19.76a2.77,2.77,0,0,1-.11.48,2,2,0,0,1-.2.59,4.64,4.64,0,0,0-.41.92c-.74,2-1.28,4-1.81,6-.34,1.28-.68,2.54-1.06,3.71l-.08.35a13.55,13.55,0,0,1-.33,1.52,10.57,10.57,0,0,0-.34,1.6l-.22,0c-1.59.34-4.54,1-4.54,3.6a7.55,7.55,0,0,0,.19,1.63h-2.45A7.17,7.17,0,0,0,224,216a7.34,7.34,0,0,1-1.58.51c-1.23.43-2.46.8-3.68,1.17a45.09,45.09,0,0,0-7.44,2.72,27.7,27.7,0,0,0-4,2.1c-.82.49-1.64,1-2.83,1.63-.17.1-.51.25-.85.41a9,9,0,0,0-1.57.86l-.8.43a3.58,3.58,0,0,1-2.11.63,42.6,42.6,0,0,1,2.08-6.45c.14-.49.21-.82.28-1.16l2.77-.24v-.92l3.05-1.3a2.21,2.21,0,0,0,1.8-.66l.51-.21.52-.79,5.63-2,1.66-2.22,2.39-1.5a4.92,4.92,0,0,0,.51-.26l.42-.18a10.84,10.84,0,0,1,1.46-.56,8.9,8.9,0,0,0,3.5-2l1.42-.86a5.25,5.25,0,0,1,1.42-.61,4.57,4.57,0,0,0,2.06-1.14l2.79-3h-4.32a9.19,9.19,0,0,0-2.27.33,4.43,4.43,0,0,1-1.05.19h-1.63a63.71,63.71,0,0,0-9.8,1.77c-.23,0-.59.1-1.38.27a8.41,8.41,0,0,0-.94.23l-1.65.51a4.1,4.1,0,0,0-1.15.6l-.94.23-.11,0c.38-.84.72-1.66,1-2.47s.65-1.6,1-2.4c0,0,1.92-4.28,1.92-5.24,0-.16.06-.56.11-1,0-.2.05-.39.07-.57a2.32,2.32,0,0,0,1-1.22l1.21.24,2.57-.79a3.48,3.48,0,0,0,1-.44,7.21,7.21,0,0,0,.9-.43l.34-.18a5.89,5.89,0,0,0,.81-.25c.19-.07.4-.14.29-.15l1.75-.45a8.27,8.27,0,0,0,.91-.58c.13-.1.26-.21.39-.29h.43l1.48-1.31.85-.15c1.22-.52,3.77-1.61,3.77-3.91v-1.5l-4.33-.73h-3c-8.25,0-18.25,1.86-30.5,5.67a6.4,6.4,0,0,1-.66.14,5.48,5.48,0,0,0-3.05,1.32L187,189.43Zm61.62,12.08.7-1.81c.82-2.1,1.6-4.11,2.2-5.5H252l.15.49c.18.36.74,1.87.8,2.1l1.35,8.72h-1.95l-1.5,0a10.44,10.44,0,0,0-1.17.06l-.91-.1-.77,0-.58,0,.8-1.88.4-.56Z"/><path class="cls-1" d="M317.7,195.31l1,1.31.58.5c.26.15.62.38,1,.62a12,12,0,0,0,2.23,1.24l.61.11a5.31,5.31,0,0,0,3-1.18,5.5,5.5,0,0,0,.57-.42l.37-.05c-.15.26-.29.54-.45.86l-.28,1.06a12.57,12.57,0,0,1-1.05,1.91c-.29.47-.6,1-.85,1.43a17.33,17.33,0,0,0-1.17,2.52,9.68,9.68,0,0,1-1.47,2.77,1.32,1.32,0,0,1-.29.41h0c-.09,0-.49,0-1,.1s-1.13.15-1.38.16l-1.13-.12-.46,1.09a3.3,3.3,0,0,1-.49.51,3.19,3.19,0,0,0-1.29,2.23c0,.78.42,1.3,1.11,2.17a14.16,14.16,0,0,1,1.44,2c0,.21-.14.62-.24,1s-.13.49-.17.67a4.19,4.19,0,0,0-.5,1.42,3.6,3.6,0,0,1-.22.4,2.58,2.58,0,0,0-.45,1.35v1.28c0,.18-.15.59-.26,1a7.63,7.63,0,0,0-.37,1.76l0,.35-.43,3,0,2a7.8,7.8,0,0,0,1.94,5.92,6,6,0,0,0,1.95,1.5l1,.14a23.23,23.23,0,0,0,8.59-2c.7-.35,1.38-.62,2.05-.89a27.28,27.28,0,0,0,2.55-1.14c.62-.33,1.18-.69,1.72-1a11.4,11.4,0,0,1,1.79-1h1l.75-.64a5,5,0,0,0,1.32-1l1.42-.62.36-1.43.12-.09a21.65,21.65,0,0,1,3.26-2.07,4.49,4.49,0,0,0,1.18-.53,3.77,3.77,0,0,0,1.22-1l.17-.2.14-.08c.37-.24.79-.47,1.22-.71a19.59,19.59,0,0,0,2.32-1.46l.59-.59a2.28,2.28,0,0,0,1.54-1.09l6.18-5.4H355.3a7.17,7.17,0,0,0-2.77.73,7.26,7.26,0,0,1-1.59.51c-1.23.43-2.45.8-3.67,1.17a44.44,44.44,0,0,0-7.44,2.72,26.73,26.73,0,0,0-4,2.1c-.82.49-1.64,1-2.83,1.63-.18.1-.51.25-.85.41a9.4,9.4,0,0,0-1.57.85l-.81.44a3.53,3.53,0,0,1-2.1.63,44.65,44.65,0,0,1,2.07-6.45,9,9,0,0,0,.28-1.16l2.77-.24v-.92l3.05-1.3a2.24,2.24,0,0,0,1.81-.66l.5-.21.52-.79,5.63-2,1.66-2.22,2.4-1.5a4,4,0,0,0,.5-.26l.43-.18a10.79,10.79,0,0,1,1.45-.56,9,9,0,0,0,3.52-2l1.41-.86a5.34,5.34,0,0,1,1.41-.61,4.6,4.6,0,0,0,2.07-1.14l2.78-3h-4.31a9.12,9.12,0,0,0-2.27.33,4.5,4.5,0,0,1-1.06.19H352.7a63.81,63.81,0,0,0-9.79,1.77c-.23,0-.59.1-1.38.27a7.2,7.2,0,0,0-.94.23l-1.65.51a4.29,4.29,0,0,0-1.16.6l-.93.23-.12,0c.39-.84.73-1.67,1-2.48s.65-1.59,1-2.39c0,0,1.91-4.28,1.91-5.24,0-.16.07-.56.12-1,0-.2.05-.39.07-.57a2.42,2.42,0,0,0,1-1.22l1.2.24,2.58-.79a3.35,3.35,0,0,0,1-.44,7.3,7.3,0,0,0,.91-.43l.34-.18a5.81,5.81,0,0,0,.8-.25c.2-.07.41-.14.3-.15l1.74-.45a6.59,6.59,0,0,0,.92-.59c.13-.09.26-.2.39-.28h.42l1.49-1.31.85-.16c1.22-.52,3.76-1.6,3.76-3.9v-1.5l-4.33-.73h-3c-8.26,0-18.25,1.86-30.5,5.67-.21.06-.44.1-.66.14a5.43,5.43,0,0,0-3.05,1.32l-1.64,1.49v1.66a5.46,5.46,0,0,0,1.78,3.76Z"/><path class="cls-1" d="M164.27,262.49a1.87,1.87,0,0,0-.92-2,8.89,8.89,0,0,0-5.43-1.57c-.83,0-5.41.66-5.82,3.8v.19a.73.73,0,0,1-.09.13,7,7,0,0,1-.55.47,7.35,7.35,0,0,0-1.05.95l-.31.34c-.31.35-.82.94-.94,1.06l-.82.52v.27a3,3,0,0,0-.78.93l-.37.54a15.12,15.12,0,0,1-1.25,1.61l-5.87,6.22a24,24,0,0,0-1.91,2.38c-.46.62-.92,1.25-1.62,2.11a40.38,40.38,0,0,0-3.54,4.83c-.5.75-1,1.5-1.5,2.23l-.6-2.89c0-.1,0-.49-.05-.87l0-1.28-.55-.65a9.74,9.74,0,0,0-.31-1.2c0-.17-.1-.33-.1-.21l0-.44-.25-.42s-.17-.32-.21-.18l-.21-.88c0-.22,0-.46,0-.72-.09-1.6-.22-3.78-1.63-5l-.47-.43a4.23,4.23,0,0,0,.2-.57l.5-.25V265.9l-3.13-3.24-.49-.13a7,7,0,0,1-1.34-.54,7.58,7.58,0,0,0-3.22-.92c-3,0-4.49,2.66-5.48,4.42l-.55,1c-.08.19-.25.8-.43,1.48-.08.27-.15.56-.23.83h-.52v3.07l-.09.22a4,4,0,0,0-.41,1.23,7.63,7.63,0,0,0-.12,1,1,1,0,0,1-.13.47l-.29.91c0,.13-.09.43-.16.74-.15.66-.23,1-.26,1.3l-.23.54a5.3,5.3,0,0,0-.59,1.84l-.07.63c0,.15,0,.3-.05.44l-.58,1v2.05l-.25.77c-.07.54-.11,1-.15,1.52a21.06,21.06,0,0,1-.3,2.4c0,.26-.14.83-.18,1.2v1.27c0,.24-.1.8-.18,1.39-.13.9-.25,1.84-.25,2.15v1.72c-.27,2.3-.45,4.42-.62,6.69a33.34,33.34,0,0,0,.64,5.67l.05,1,0,.42a27.12,27.12,0,0,0,2.58,6.07l.55,1,.43.26a3.66,3.66,0,0,1,.48.58c.17.24.35.48.55.71l.71.62h.82a2.17,2.17,0,0,0,2.26-1.84l.93-.38-.71-2.61v-.72c0-.43,0-1,.08-1.51s.1-1.33.1-1.91.07-1.47.12-2.14c0-.4.05-.73.05-.73h0c0-.27.22-.9.4-1.53s.36-1.35.42-1.66a8.36,8.36,0,0,1,.47-1.22,10.64,10.64,0,0,0,.62-1.71l.77-4.86c0,.25.11.52.17.8l.16.71a27.13,27.13,0,0,0,1,4.74l.31,1.56a21.2,21.2,0,0,0,1.78,6l.17.32,1.14.89a11.43,11.43,0,0,0,5,1.15H131l.68-.13c2.58-1,2.94-2.69,3.3-4.29l.15-.74c0-.16.12-.42.2-.67a4.19,4.19,0,0,0,.26-1.2l.51-.55v-.66c0-.13.09-.33.14-.51a3.61,3.61,0,0,0,.23-1.09l.22-2.21c.07-.31.13-.53.16-.71L141,291h.24l2.25-4.49,2.68-4.13.19-.21a102.47,102.47,0,0,0-1.94,11.27l-.19,1.15a17.71,17.71,0,0,0-.54,3v7.79a6.57,6.57,0,0,0,.19,1.24l.07.25c0,.15,0,.69.1,1.24s.08.82.12,1.3c.17.89.39,1.68.6,2.45a17.74,17.74,0,0,1,.68,3.3l.21.71,3.6,5.26v-6a4.1,4.1,0,0,0,.19-1c0-.14,0-.55.08-1s.05-.56.07-.77.14-.29.21-.43a6.61,6.61,0,0,0,.45-1,8.68,8.68,0,0,0,.71-1.63,7.44,7.44,0,0,1,.47-1.12,7,7,0,0,0,.4-1.91l.35-.63a7.27,7.27,0,0,0,.67-3.06l.07-.49a4.84,4.84,0,0,0,.08-.59l.59-2.16.06-.46a8.11,8.11,0,0,1,.3-2.06l.6-.9.6-5,.51-.72V288.8l.48-2.08.88-2.79.11-.74a10.05,10.05,0,0,1,1-2.69l.63-2.65.24-.59a3.62,3.62,0,0,0,.39-2v-.11l.51-.43.29-1.56a9.64,9.64,0,0,1,.92-3,5.08,5.08,0,0,0,1-2l.14-.4a5.51,5.51,0,0,1,.72-1.32A6.51,6.51,0,0,0,164.27,262.49Z"/><path class="cls-1" d="M372.54,281.57l-2-.73c-2.76-1-4.94-1.84-5.62-2a16.88,16.88,0,0,0-2.17-.62,4.86,4.86,0,0,1-1.15-.33,1.64,1.64,0,0,1-.13-.68l.81-1.1,0,0a3.69,3.69,0,0,0,1-1.22,4.06,4.06,0,0,0,1.11-1l.06,0c.68-.42,1.22-.8,1.69-1.13a5,5,0,0,1,3.84-1.23c2.2,0,5.2,0,7,1.33a3.1,3.1,0,0,0,1.35,1.69,4.49,4.49,0,0,0,2.33.83,4.94,4.94,0,0,0,1.91-.6,9.11,9.11,0,0,0,4.71-3.53,4.39,4.39,0,0,0,.5-2.21,3.19,3.19,0,0,0-.63-2.33l-1.7-1.87a20.07,20.07,0,0,0-12-4.41,37.07,37.07,0,0,0-6.74.44,3.25,3.25,0,0,0-2,.91l-.22.17a6.48,6.48,0,0,0-.63.23l-.35.11c-5,1.82-7.82,4.53-10.92,7.8a8.06,8.06,0,0,0-2.42,5.43c0,2.8.17,4.16.65,5,.15.29.39.72.66,1.18a13.39,13.39,0,0,1,.68,1.2l.33.52c2.57,2.74,7,3.9,10.55,4.83l2.08.56.16.05,0,0a2.57,2.57,0,0,0,1.36.44l1,.16.65.15a7.89,7.89,0,0,0,1.62.3c.47.15,1,.28,1.47.39l.67.17a26.89,26.89,0,0,1,3.78,1.36l.41.2c.71.34,2.36,1.15,2.36,1.7a8.4,8.4,0,0,1-.46,2.57l-.34.28A2.6,2.6,0,0,0,377,298l0,.09a6.77,6.77,0,0,1-2.92,2c-3.39,2-7,4.05-10.81,3.87a16.58,16.58,0,0,1-5-1.23l-.3-.1a7,7,0,0,1-.8-.43,6.53,6.53,0,0,0-2.49-.93,7.35,7.35,0,0,0-.9-.26l-.8-.29,0,0a2.92,2.92,0,0,0-1.84-.84h-4.32v1.49h-1l.93,2.42a5.83,5.83,0,0,0,1.82,2.34,2.8,2.8,0,0,0-.09.68,4.47,4.47,0,0,0-.53-.37c-1.21-.88-2.51-1.69-3.8-2.5-1.14-.71-2.27-1.41-3.09-2l-4.8-2.59-.9-.7c-1.33-1-2.77-2.15-4-3.18a41.6,41.6,0,0,1-3.19-3.12,36.09,36.09,0,0,0-3.5-3.34l.87-.64.44-.46a6,6,0,0,1,.7-.6l.81-.56a3.93,3.93,0,0,0,1.35-.84c.76-.56,1.49-1.16,2.22-1.76s1.28-1.06,2-1.56a5,5,0,0,0,.82-.44l.14-.09h.39l1.57-1.42c2.65-2.38,5.86-5.58,7.19-9.27a9.08,9.08,0,0,0,.32-2.83c0-2.56-.2-4.48-1.12-5.52a8.72,8.72,0,0,0-6.88-3.18c-6,0-11.87.24-17.15,3a15.48,15.48,0,0,0-2.26,1.07l-.38.2a3.67,3.67,0,0,0-1.57-.37,4.23,4.23,0,0,0-3.48,2.12,3.6,3.6,0,0,1-.57.68l-.72.54v.3l0,0a10.39,10.39,0,0,0-1,1.11c-3.76,1.33-4.17,3.49-4.17,4.37a6.35,6.35,0,0,0,.69,2.68,4.29,4.29,0,0,0,.35.49,10,10,0,0,1-.34,1.68l-.17.7c-.17.49-.34,1.07-.5,1.68h-4.22a9.12,9.12,0,0,0-2.27.33,4.68,4.68,0,0,1-1.06.2H295a65,65,0,0,0-9.79,1.77c-.23,0-.59.11-1.38.28a8.39,8.39,0,0,0-.94.22l-1.65.51a4,4,0,0,0-1.16.6l-.93.23-.12,0c.39-.84.72-1.67,1.05-2.48s.65-1.6,1-2.4c0,0,1.92-4.28,1.92-5.24,0-.16.07-.56.12-1,0-.2,0-.39.07-.57a2.42,2.42,0,0,0,1-1.22l1.2.24,2.58-.79a3.11,3.11,0,0,0,1-.44,5.6,5.6,0,0,0,.9-.43l.35-.18a6,6,0,0,0,.8-.24c.2-.07.41-.15.29-.16l1.75-.45a5.87,5.87,0,0,0,.91-.58,4.85,4.85,0,0,1,.4-.28h.42l1.49-1.31.84-.16c1.23-.52,3.77-1.61,3.77-3.91v-1.5l-4.33-.72h-3c-8.26,0-18.26,1.86-30.51,5.66a6.2,6.2,0,0,1-.65.14,5.5,5.5,0,0,0-3.05,1.32l-1.64,1.5v1.65a5.45,5.45,0,0,0,1.77,3.76c.16.17.32.34.42.46l1,1.31.58.51c.27.15.63.38,1,.62a12.86,12.86,0,0,0,2.22,1.24l.61.11a5.25,5.25,0,0,0,3-1.19,7,7,0,0,0,.58-.41l.37-.06q-.22.39-.45.87l-.29,1.05a11.93,11.93,0,0,1-1,1.9c-.3.47-.61,1-.86,1.44a17.73,17.73,0,0,0-1.17,2.51,9.57,9.57,0,0,1-1.48,2.79,1.26,1.26,0,0,1-.28.4h0c-.09,0-.49,0-1,.1s-1.13.16-1.39.16l-1.12-.12-.46,1.1a4.4,4.4,0,0,1-.48.5A3.17,3.17,0,0,0,258,292c0,.79.42,1.31,1.11,2.17a14.76,14.76,0,0,1,1.44,2c0,.22-.14.63-.24,1s-.13.49-.17.67a4.19,4.19,0,0,0-.5,1.42,2.87,2.87,0,0,1-.22.4A2.58,2.58,0,0,0,259,301v1.28c0,.19-.15.6-.26,1a7.49,7.49,0,0,0-.37,1.75l0,.35-.43,3,0,2c0,.13,0,.25,0,.38l0,0a5.54,5.54,0,0,0-1.65-1.48h0l-3.84-2.15-4.13-2.05a43.58,43.58,0,0,1-6.7-3.45,22,22,0,0,0-2.65-1.49,2.74,2.74,0,0,0-1.81-1.05l-.6-.29c-.6-.29-1-.49-1.33-.61a5.92,5.92,0,0,0-1.51-.75L233,297a44.65,44.65,0,0,1-4.26-3l-.84-.85c-.87-.88-1.71-1.73-2.65-2.53-.34-.27-.68-.52-1-.77l-.7-.53a10.62,10.62,0,0,1,1.33-.5,15.32,15.32,0,0,0,4.65-1c.52-.16,1.07-.33,1.68-.5a6,6,0,0,0,2.22-1.37l.5-.52v0a5.44,5.44,0,0,0,.69-.41l1.21-.66c3.74-3.13,7.05-6.06,9.64-10.38l.26-.52.19-.6s.27-2.44.27-3.27c0-.06-.2-5.73-3.45-5.73-2,0-4,1.47-5.8,2.77-.46.35-.9.67-1.3.94l-.34.24c-.17.08-.43.2-.64.28l-2.2,1.59c-.38.26-.79.49-1.2.72a14.46,14.46,0,0,0-2.24,1.45,12,12,0,0,0-.92,1,5,5,0,0,1-.87.86,7.71,7.71,0,0,0-1.51.75l-.33.2-.16.07a17.26,17.26,0,0,0-2.05,1.28l-.66.45.35-1.21a7.39,7.39,0,0,1,.28-.73,9.46,9.46,0,0,0,.36-.94,10.58,10.58,0,0,0,.79-2.6,8.22,8.22,0,0,1,.23-1l.47-.63v-2a3.26,3.26,0,0,0-1-2v-.71c0-2.53-4.28-2.93-4.67-2.93l-1.93.29a2.81,2.81,0,0,0-1.73,2.11l-1.05,1-1,1.88a41.58,41.58,0,0,1-1.81,3.81l-.58,1.14-.15.49-.16.45a8.88,8.88,0,0,0-.3.94l-.71,1.11v.27c0,.11-.1.22-.15.33a4.87,4.87,0,0,0-.32.86c-.27.78-.57,1.52-.87,2.25a22.51,22.51,0,0,0-1.81,6.35V285c-.36,1.29-.67,2.56-.94,3.84a3.32,3.32,0,0,0-.43-.24l-1.19-.72-.53-.24a17.6,17.6,0,0,0-4.56-.63c-.49,0-1,0-1.54-.07-.34-2.84-.69-6-.84-8.46l0-.44-.28-.46h0c0-.5-.12-1.37-.12-1.71v-.49a22.91,22.91,0,0,1,0-3.8v-.43a5.09,5.09,0,0,0-.54-1.93l-2.28-2.48v0a4.54,4.54,0,0,0,.1-.83,7.17,7.17,0,0,0-3.63-5.85l-1.18-.4a27.5,27.5,0,0,0-7-1.14c-1,0-2.32,0-2.91,1.14l-.27,1.07c-.16.24-.45.56-.67.82a3.27,3.27,0,0,0-.56.82,2.38,2.38,0,0,0-.61,1c-.22.63-.41,1.29-.58,1.93a12.3,12.3,0,0,1-1,2.83l-.18.3-.14.18a4.72,4.72,0,0,0-.68,1.09,6.55,6.55,0,0,0-.47,1.64c0,.17-.07.35-.12.53a5.32,5.32,0,0,1-.37.46,8.18,8.18,0,0,0-1,1.42l-.19.76a2.68,2.68,0,0,1-.11.49,2.52,2.52,0,0,1-.2.58,4.34,4.34,0,0,0-.41.92c-.74,2-1.28,4-1.81,5.95-.35,1.29-.68,2.55-1.06,3.72l-.08.36c0,.34-.2.94-.34,1.51a12.37,12.37,0,0,0-.33,1.6l-.22,0c-1.59.34-4.54,1-4.54,3.61a8.84,8.84,0,0,0,1.91,5.34,2.2,2.2,0,0,0,.47.49c-.76,4.8-1.16,10-1.14,10.38-.1.71-.19,1.24-.25,1.67a10.91,10.91,0,0,0-.21,1.91,12,12,0,0,0,.6,3,7.87,7.87,0,0,0,.57,1.1,3.26,3.26,0,0,0,2.9,1.88c1.57,0,2.57-1.8,2.57-2.75v-.08a3,3,0,0,0,.35-.72l.6-.46.42-.64,1.29-.87-.11-.25a2.33,2.33,0,0,0,.37-.57c.12-.28.25-.54.38-.8a9.06,9.06,0,0,0,1-2.72l.1-.56.91-1.22-.19-.41v-.5a4,4,0,0,0,1.3-2.56l.27-.82.14-.57a5.56,5.56,0,0,0,.28-1.53,4.59,4.59,0,0,1,.41-1.19,2.33,2.33,0,0,0,.29-.85l.25-1.69a21.2,21.2,0,0,1,2.2-.91,6.34,6.34,0,0,0,1-.4l.84,0a6.14,6.14,0,0,0,.71-.1c.29-.06.7-.15.86-.16a15.08,15.08,0,0,0,3.43-.52,9.15,9.15,0,0,1,1.48-.28h.41a4.72,4.72,0,0,0,.16,1.12v5.15h0v.1a2.34,2.34,0,0,0,.14.8l-.14.77a15,15,0,0,0,.16,2,10.53,10.53,0,0,1,.11,1.26,2.84,2.84,0,0,1-.14,1.18l-.3,2.29-.17.69A16.72,16.72,0,0,0,189,312c0,1.38-.09,1.91-.91,2.56a2.08,2.08,0,0,0-.88.55,2.51,2.51,0,0,0-1,2.67,2.57,2.57,0,0,0,2.61,1.78h.45a3.5,3.5,0,0,0,2.79-1.32c.23-.25.23-.25.38-.27l.68-.21.2-.13a4.58,4.58,0,0,0,1.32-1.16l.83-.7a6.44,6.44,0,0,0,1.28-2.57c0-.12,0-.31.08-.48s0-.29.06-.41l.15-.49a5.41,5.41,0,0,0,.15-1.11c0-.14,0-.32,0-.35l.32-.21.21-.43a3.77,3.77,0,0,0,.33-1l.51-.93v-.5a4.11,4.11,0,0,0,.22-1.16l0-10.23c-.13-.69-.2-1.15-.26-1.64,0-.11,0-.22,0-.33,1.8-.14,4.41-.28,4.84-.29a13.85,13.85,0,0,0,1.8-.06,45.4,45.4,0,0,0-.32,5.28,46.25,46.25,0,0,0,1,8.72c.2.86.37,1.73.55,2.6a34.36,34.36,0,0,0,2.29,7.92l.19.35a2.16,2.16,0,0,0,2,1.46h1.79v-1.78a7.44,7.44,0,0,0-.15-1.35,6.48,6.48,0,0,1-.12-1.1l.21-1.06a9.51,9.51,0,0,0,.17-2.45,4.72,4.72,0,0,1,.32-2.18,6.1,6.1,0,0,0,.52-2.48c0-.26,0-.54,0-.49l.26-.7.12-.59a3.93,3.93,0,0,1,.13-.6c.27-1.15,1.15-5.95,1.36-7.32,0,.4-.1.56,0,.47a3,3,0,0,0,.39-.76l.56-1.26a3,3,0,0,0,1.19,1.21l0,.33,3.71,3.8a6.07,6.07,0,0,0,2.22,2.86l.91,1.18a.41.41,0,0,0,0,.09l-.3.15,3.92,3,4.81,3,.7,1.86,1.36-1a7.52,7.52,0,0,0,3.28.73,7.58,7.58,0,0,1,1.24.32l.91.43a11.08,11.08,0,0,0,1.72.18,6.21,6.21,0,0,1,2.1.34l.33.13,2.59-.33,2.23.28a2.85,2.85,0,0,0,1.36.31h0l2.52-.08a7.82,7.82,0,0,0,1.72.1l2.15.07a3,3,0,0,0,2,.79h.68c.08.09.11.18.2.28a6,6,0,0,0,2,1.5l1,.14a23.26,23.26,0,0,0,8.59-2c.7-.35,1.38-.63,2.05-.9A23.82,23.82,0,0,0,276,313.9c.63-.33,1.19-.69,1.73-1a11.4,11.4,0,0,1,1.79-1h1l.75-.64a4.56,4.56,0,0,0,1.31-1l1.42-.61.37-1.44.12-.09a21.36,21.36,0,0,1,3.26-2.07,5,5,0,0,0,1.18-.52,3.94,3.94,0,0,0,1.22-1l.18-.2.12-.08c.37-.23.79-.46,1.22-.7A18.59,18.59,0,0,0,294,302l.58-.59a2.26,2.26,0,0,0,1.55-1.08l5.75-5c-.21,2.9-.32,5.84-.32,8.94,0,3.37.23,8.35,2.17,12.64l3.59,5.33v-5.8c0-.51,0-.83-.13-.72l1.18-1v-.84l.62-1.08c.22-.48.75-2.06,1.34-3.83l1.71-5.12.59-.58-.07-.82a5.75,5.75,0,0,1,.76-2.68,14.21,14.21,0,0,0,1-2.8l.15-.48.16-.12a6,6,0,0,0,.9-.73l2.13-1.37.65-.51a15.7,15.7,0,0,0,2.86,4.35c.46.56,1,1.2,1.73,2.14a15.57,15.57,0,0,1,1.33,1.64c.33.44.66.88,1.26,1.55.92.76,2.93,2.76,2.93,2.77l3.58,3.4.15.32.53.11a18.7,18.7,0,0,1,2.41,1.55l-.28.56,2.67,1.31a9.53,9.53,0,0,0,3.3.65,2.91,2.91,0,0,0,1.69.42H343l.42-.24,1.87-.3.75-.25a1.6,1.6,0,0,1,1.43,0,5.87,5.87,0,0,0,1.62.28h1.48a3.44,3.44,0,0,0,2.2.26h3.68l-.1-.13h.58a5.43,5.43,0,0,0,1.09.42,27.58,27.58,0,0,0,10,2.07,13.75,13.75,0,0,0,4.63-1c.46-.16.92-.32,1.38-.45L375,315a8.24,8.24,0,0,0,1.1-.33h.54l1-.68.21-.06a5.88,5.88,0,0,0,1.6-.6,18.65,18.65,0,0,0,5.84-4.41l.73-1.45.37-.32.86-1.84a8.81,8.81,0,0,1,.88-1.31,12,12,0,0,0,1.32-2l.95-1.15a8,8,0,0,0,1-3.16V294l-.09-.57C388.55,285.52,378.81,283.11,372.54,281.57Zm-56.28,2.21c0-.13.07-.3.11-.46s.05-.23.07-.34a3.17,3.17,0,0,0,.38-.88,20.47,20.47,0,0,0,.88-4.79c.07-.67.14-1.27.23-1.93,0-.15.08-.37.07-.37a11.53,11.53,0,0,0,.35-1.31c.08-.31.19-.8.29-1.14a29.35,29.35,0,0,1,14.12-3.19,5.68,5.68,0,0,1-.71,1.26l-.47.54a12,12,0,0,1-3.29,3.22l-.91.71c-1.75,1.58-2.71,2.32-4,3.28-.59.46-1.25,1-1.92,1.53a18.76,18.76,0,0,0-2.76,2.26c-.47.43-.95.88-1.58,1.4-.18.18-.53.49-1,.86C316.24,284.1,316.27,283.83,316.26,283.78Zm-133.79-1,.68-1.76c.82-2.13,1.61-4.15,2.21-5.55h.51l.16.5c.18.35.74,1.87.8,2.1l1.35,8.71h-2l-1.5.05c-.63,0-1.25,0-1.18.05l-.91-.1-.77,0-.58,0,.8-1.88.41-.55ZM301.93,295h-4.36a7.22,7.22,0,0,0-2.78.72,7,7,0,0,1-1.58.51c-1.23.43-2.46.8-3.69,1.17a47.35,47.35,0,0,0-7.42,2.71,28,28,0,0,0-4,2.12c-.81.49-1.63,1-2.81,1.62-.18.11-.51.26-.85.42a8.12,8.12,0,0,0-1.57.85l-.81.43a3.62,3.62,0,0,1-2.11.64,44.24,44.24,0,0,1,2.08-6.46,8.61,8.61,0,0,0,.28-1.16l2.77-.23v-.92l3-1.31a2.25,2.25,0,0,0,1.81-.66l.49-.21.53-.79,5.63-2,1.66-2.21,2.39-1.51a4.09,4.09,0,0,0,.51-.26l.43-.17a9.8,9.8,0,0,1,1.45-.57,9,9,0,0,0,3.52-2l1.41-.86a5.34,5.34,0,0,1,1.41-.61,4.6,4.6,0,0,0,2.07-1.14l2.66-2.91a60.4,60.4,0,0,0-1.39,7.37C302.38,290.06,302.12,292.49,301.93,295Z"/></g></g></svg>