<svg xmlns="http://www.w3.org/2000/svg" viewBox="0 0 120.79 172.96"><defs><style>.cls-1{fill:none;stroke:#8eaf54;stroke-miterlimit:10;stroke-width:5px;}.cls-2{fill:#8eaf54;}</style></defs><g id="Layer_2" data-name="Layer 2"><g id="Layer_1-2" data-name="Layer 1"><path d="M46.41,173h-2.3V163.6h-13v-2h28.4v2H46.41Zm11.34-24.38H32.88v-2H57.75Zm-5.7,2.74a3.82,3.82,0,0,1,2.53,3.6A3.87,3.87,0,0,1,52,158.54a16,16,0,0,1-6.73,1.2,15.88,15.88,0,0,1-6.7-1.2A3.88,3.88,0,0,1,36,154.92a3.84,3.84,0,0,1,2.56-3.6,16,16,0,0,1,6.7-1.19A16.17,16.17,0,0,1,52.05,151.32Zm.12,3.6c0-1-.69-1.7-2.09-2.14a15.5,15.5,0,0,0-4.78-.67,15.51,15.51,0,0,0-4.76.67c-1.39.44-2.08,1.16-2.08,2.14s.69,1.66,2.08,2.11a15.83,15.83,0,0,0,4.76.66,15.82,15.82,0,0,0,4.78-.66C51.48,156.58,52.17,155.88,52.17,154.92Zm-1.73-10.84H40.15V142H50.44Z"/><path d="M73.16,164h-2.3V158.3q-1.69.07-8.46.26l-.47-2.06q3.63,0,10.47-.21t9.9-.69l.22,1.84c-1,.14-4.15.4-9.36.76Zm4.66-19.41A4.87,4.87,0,0,1,80,148.76a4.73,4.73,0,0,1-2.22,4.16,10.1,10.1,0,0,1-5.78,1.5,10.09,10.09,0,0,1-5.77-1.5,4.73,4.73,0,0,1-2.22-4.16,4.88,4.88,0,0,1,2.23-4.21A9.92,9.92,0,0,1,72,143,9.88,9.88,0,0,1,77.82,144.55Zm-.12,4.21a3.13,3.13,0,0,0-1.57-2.71A7.29,7.29,0,0,0,72,145,7.43,7.43,0,0,0,68,146a3.09,3.09,0,0,0-1.57,2.73A3.05,3.05,0,0,0,68,151.48a8.92,8.92,0,0,0,8.17,0A3.07,3.07,0,0,0,77.7,148.76Zm10.83,23.4h-22v-9h2.3v7H88.53Zm-.68-6.66H85.54V162H79.21V160h6.33V141.46h2.31Z"/><path class="cls-1" d="M60.39,2.76c-1.71-.17-3.45-.26-5.21-.26a52.68,52.68,0,1,0,0,105.35c1.76,0,3.5-.09,5.21-.26"/><path class="cls-1" d="M65.61,2.5c-1.76,0-3.5.09-5.22.26a52.67,52.67,0,0,1,0,104.83c1.72.17,3.46.26,5.22.26a52.68,52.68,0,1,0,0-105.35Z"/><path class="cls-1" d="M60.39,107.59a52.67,52.67,0,0,0,0-104.83"/><line class="cls-1" x1="96.96" y1="24.05" x2="108.19" y2="24.05"/><line class="cls-1" x1="105.13" y1="38.92" x2="116.36" y2="38.92"/><line class="cls-1" x1="107.96" y1="53.78" x2="119.2" y2="53.78"/><line class="cls-1" x1="105.7" y1="68.64" x2="116.93" y2="68.64"/><line class="cls-1" x1="99.91" y1="83.5" x2="111.14" y2="83.5"/><path class="cls-2" d="M54.56,75.12q-8.4,0-13.07-4.85T36.81,55.85V54.44a25.44,25.44,0,0,1,1.41-8.87,14.13,14.13,0,0,1,4-6A17.23,17.23,0,0,1,48,36.3a23,23,0,0,1,7.19-1.07c4.21,0,7.49.64,9.86,1.92v6a29.65,29.65,0,0,0-8.85-1.69c-3.42,0-6.07,1-8,3s-2.84,5.07-2.84,9.24v1.92q0,6.48,2.59,9.8c1.72,2.22,4.49,3.32,8.28,3.32a21.83,21.83,0,0,0,9.07-2v6A22.09,22.09,0,0,1,54.56,75.12Z"/></g></g></svg>