<svg xmlns="http://www.w3.org/2000/svg" viewBox="0 0 114.59 174.89"><defs><style>.cls-1{fill:#8eaf54;}</style></defs><g id="Layer_2" data-name="Layer 2"><g id="Layer_1-2" data-name="Layer 1"><path d="M27.15,165.28a65.22,65.22,0,0,1-13.39,1.12V147h2.3v17.31c1.66,0,3.56-.1,5.72-.3a35.12,35.12,0,0,0,4.94-.74Zm11.3,9.61h-2.3V158H31.5v15.19H29.24v-29H31.5V156.1h4.65V143.43h2.3Z"/><path d="M44.21,147.82v-1.94H60.73v1.94H53.61v1.91A8.1,8.1,0,0,0,56,155.29a12.78,12.78,0,0,0,5.45,3.62l-1.29,1.87a15.48,15.48,0,0,1-4.63-3,12.67,12.67,0,0,1-3.15-4.14,10.36,10.36,0,0,1-3,4.5,17.05,17.05,0,0,1-5,3.53l-1.3-1.76a14.5,14.5,0,0,0,5.69-4.22,9.18,9.18,0,0,0,2.52-6v-1.91ZM69,169a4.79,4.79,0,0,1-2.76,4.31,15.86,15.86,0,0,1-7.75,1.56,15.77,15.77,0,0,1-7.74-1.56,4.79,4.79,0,0,1,0-8.66q2.73-1.59,7.74-1.59a15.61,15.61,0,0,1,7.75,1.59A4.84,4.84,0,0,1,69,169ZM58.47,165.1a14.1,14.1,0,0,0-6,1,3,3,0,0,0,0,5.76,14.28,14.28,0,0,0,6,1,14.39,14.39,0,0,0,6-1,3,3,0,0,0,0-5.76A14.19,14.19,0,0,0,58.47,165.1Zm8-11.63h-6.3v-1.94h6.3v-8.1h2.31V163H66.42Z"/><path d="M98.86,162H89.53v6.88h13.11v2H74.23v-2h13V162H78V145.91h2.31v5.83H96.55v-5.83h2.31Zm-2.31-1.94v-6.34H80.32v6.34Z"/><path class="cls-1" d="M112.2,114.43H2.4A2.39,2.39,0,0,1,0,112C0,89.41,14.91,69.18,36.85,61.22a34,34,0,1,1,40.89,0c21.94,8,36.85,28.19,36.85,50.81A2.39,2.39,0,0,1,112.2,114.43ZM4.86,109.64H109.74C108.65,88.49,93.23,70,71.49,64.28A2.4,2.4,0,0,1,71,59.85a29.23,29.23,0,1,0-27.37,0,2.39,2.39,0,0,1-.51,4.43C21.36,70,5.94,88.49,4.86,109.64Z"/></g></g></svg>