<svg xmlns="http://www.w3.org/2000/svg" viewBox="0 0 113.95 175.35"><defs><style>.cls-1{fill:#bcbcbc;}</style></defs><g id="Layer_2" data-name="Layer 2"><g id="Layer_1-2" data-name="Layer 1"><path d="M55.61,171.31H27.2v-2h13v-8.06h2.3v8.06H55.61Zm-1.23-11.62-1.29,1.87a22.47,22.47,0,0,1-7.42-4.14,14,14,0,0,1-4.32-5.22c-.5,1.61-1.87,3.35-4.1,5.24a20.63,20.63,0,0,1-7.53,4.05l-1.26-1.88a16.54,16.54,0,0,0,5.31-2.19,16.77,16.77,0,0,0,4.56-4.11,8,8,0,0,0,1.87-4.82v-2.16h2.37v2.16c0,2.33,1.3,4.61,3.89,6.86A19.06,19.06,0,0,0,54.38,159.69Z"/><path d="M76.85,158.68l-1.41,1.83a18.29,18.29,0,0,1-4.61-3.31,11.85,11.85,0,0,1-2.91-4.35q-1.41,4.68-7.89,8.56l-1.44-1.76A16.57,16.57,0,0,0,64.41,155a10.34,10.34,0,0,0,2.28-6.52v-3.06H69v3a9.44,9.44,0,0,0,2.41,6.33A13.19,13.19,0,0,0,76.85,158.68ZM84,175.35h-2.3v-9H63.09v-1.94H84Zm0-12.75h-2.3V143.88H84Z"/><path class="cls-1" d="M111.4,53.86H98V2.55A2.55,2.55,0,0,0,95.45,0H2.55A2.55,2.55,0,0,0,0,2.55V112.34a2.55,2.55,0,0,0,2.55,2.54H111.4a2.55,2.55,0,0,0,2.55-2.54V56.41A2.55,2.55,0,0,0,111.4,53.86ZM5.09,109.79V5.09H92.9v104.7H5.09Zm103.76,0H98V59h10.86Z"/><path class="cls-1" d="M81.37,9.7H15.18a2.54,2.54,0,0,0-2.54,2.54V32.39a2.54,2.54,0,0,0,2.54,2.54H81.37a2.55,2.55,0,0,0,2.55-2.54V12.24A2.55,2.55,0,0,0,81.37,9.7ZM78.83,29.84H17.73v-15h61.1Z"/><path class="cls-1" d="M81.37,43H15.18a2.55,2.55,0,0,0,0,5.09H81.37a2.55,2.55,0,1,0,0-5.09Z"/><path class="cls-1" d="M81.37,59.49H15.18a2.55,2.55,0,0,0,0,5.1H81.37a2.55,2.55,0,1,0,0-5.1Z"/><path class="cls-1" d="M81.37,76H15.18a2.55,2.55,0,0,0,0,5.09H81.37a2.55,2.55,0,1,0,0-5.09Z"/><path class="cls-1" d="M81.37,92.53H15.18a2.55,2.55,0,0,0,0,5.09H81.37a2.55,2.55,0,1,0,0-5.09Z"/></g></g></svg>